<?xml version="1.0" encoding="UTF-8"?><svg xmlns="http://www.w3.org/2000/svg" xmlns:xlink="http://www.w3.org/1999/xlink" height="52.9" preserveAspectRatio="xMidYMid meet" version="1.0" viewBox="0.0 0.0 200.4 52.9" width="200.4" zoomAndPan="magnify"><defs><clipPath id="a"><path d="M 0 0 L 200.421875 0 L 200.421875 45 L 0 45 Z M 0 0"/></clipPath><clipPath id="b"><path d="M 153 16 L 188 16 L 188 52.859375 L 153 52.859375 Z M 153 16"/></clipPath></defs><g><g clip-path="url(#a)" id="change1_1"><path d="M 193.382812 0.00390625 L 7.039062 0.00390625 C 3.152344 0.00390625 0 3.15625 0 7.042969 L 0 37.769531 C 0 41.65625 3.152344 44.804688 7.039062 44.804688 L 149.34375 44.804688 C 150.132812 44.804688 150.730469 44.089844 150.582031 43.3125 C 150.578125 43.304688 150.578125 43.296875 150.574219 43.289062 C 150.464844 42.691406 149.945312 42.261719 149.339844 42.261719 L 7.039062 42.261719 C 4.558594 42.261719 2.546875 40.25 2.546875 37.769531 L 2.546875 7.042969 C 2.546875 4.5625 4.558594 2.550781 7.039062 2.550781 L 193.382812 2.550781 C 195.863281 2.550781 197.875 4.5625 197.875 7.042969 L 197.875 37.769531 C 197.875 39.816406 196.5 41.546875 194.621094 42.085938 C 194.074219 42.242188 193.6875 42.730469 193.6875 43.300781 L 193.6875 43.332031 C 193.6875 44.15625 194.46875 44.769531 195.265625 44.550781 C 198.234375 43.726562 200.421875 40.996094 200.421875 37.769531 L 200.421875 7.042969 C 200.421875 3.15625 197.269531 0.00390625 193.382812 0.00390625" fill="#333"/></g><g clip-path="url(#b)" id="change2_1"><path d="M 160.046875 39.78125 C 159.867188 39.78125 159.691406 39.8125 159.527344 39.867188 C 159.109375 40.007812 158.769531 40.300781 158.570312 40.695312 L 158.546875 40.746094 C 158.144531 41.527344 158.425781 42.492188 159.179688 42.945312 L 159.207031 42.964844 L 169.472656 49.589844 L 169.480469 49.59375 C 170.375 50.109375 171.28125 50.378906 172.101562 50.378906 C 172.628906 50.378906 173.097656 50.269531 173.5 50.050781 L 183.960938 44.355469 C 184.769531 43.917969 185.3125 43.128906 185.421875 42.246094 C 185.8125 39.023438 183.40625 34.855469 183.378906 34.8125 L 183.363281 34.785156 L 178.621094 26.070312 C 178.464844 25.785156 178.210938 25.578125 177.902344 25.488281 C 177.789062 25.457031 177.671875 25.4375 177.558594 25.4375 C 177.359375 25.4375 177.160156 25.488281 176.984375 25.585938 L 176.9375 25.609375 C 176.355469 25.925781 176.136719 26.660156 176.453125 27.246094 L 178.140625 30.355469 C 178.46875 30.953125 178.242188 31.707031 177.644531 32.035156 L 177.628906 32.042969 C 177.449219 32.140625 177.242188 32.195312 177.039062 32.195312 C 176.921875 32.195312 176.800781 32.175781 176.6875 32.140625 C 176.367188 32.046875 176.105469 31.835938 175.949219 31.546875 L 173.226562 26.535156 C 173.074219 26.253906 172.816406 26.046875 172.507812 25.957031 C 172.394531 25.921875 172.28125 25.90625 172.164062 25.90625 C 171.964844 25.90625 171.765625 25.957031 171.589844 26.050781 L 171.546875 26.074219 C 170.960938 26.394531 170.746094 27.128906 171.0625 27.710938 L 173.78125 32.730469 C 174.109375 33.328125 173.886719 34.082031 173.289062 34.40625 L 173.273438 34.414062 C 173.09375 34.511719 172.890625 34.5625 172.6875 34.5625 C 172.566406 34.5625 172.449219 34.546875 172.332031 34.511719 C 172.015625 34.417969 171.753906 34.207031 171.597656 33.917969 L 167.933594 27.1875 C 167.78125 26.90625 167.527344 26.699219 167.214844 26.609375 C 167.101562 26.574219 166.988281 26.558594 166.871094 26.558594 C 166.671875 26.558594 166.472656 26.609375 166.296875 26.707031 L 166.253906 26.730469 C 165.671875 27.046875 165.453125 27.78125 165.769531 28.367188 L 169.429688 35.113281 C 169.585938 35.402344 169.621094 35.738281 169.527344 36.054688 C 169.4375 36.371094 169.226562 36.632812 168.933594 36.789062 L 168.921875 36.796875 C 168.742188 36.894531 168.539062 36.949219 168.335938 36.949219 C 168.214844 36.949219 168.097656 36.929688 167.980469 36.894531 C 167.664062 36.800781 167.40625 36.589844 167.246094 36.300781 L 158.414062 20.070312 C 158.261719 19.789062 158.023438 19.578125 157.746094 19.480469 C 157.609375 19.429688 157.46875 19.40625 157.328125 19.40625 C 157.132812 19.40625 156.9375 19.457031 156.757812 19.554688 L 156.714844 19.578125 C 156.128906 19.894531 155.910156 20.628906 156.230469 21.214844 L 165.863281 38.980469 C 166.234375 39.667969 166.117188 40.5 165.570312 41.050781 C 165.449219 41.175781 165.308594 41.28125 165.15625 41.363281 C 164.902344 41.503906 164.613281 41.574219 164.324219 41.574219 C 164.039062 41.574219 163.757812 41.503906 163.503906 41.371094 L 160.890625 39.996094 C 160.628906 39.855469 160.335938 39.78125 160.046875 39.78125 Z M 172.109375 52.859375 C 170.828125 52.859375 169.476562 52.46875 168.199219 51.722656 L 168.152344 51.695312 L 157.882812 45.066406 C 156.027344 43.941406 155.347656 41.550781 156.328125 39.617188 L 156.335938 39.605469 C 156.734375 38.828125 157.335938 38.199219 158.082031 37.796875 C 158.21875 37.722656 158.359375 37.652344 158.503906 37.597656 C 159.003906 37.394531 159.53125 37.292969 160.066406 37.292969 C 160.683594 37.292969 161.304688 37.433594 161.863281 37.703125 L 162.511719 38.011719 L 154.042969 22.398438 C 153.074219 20.613281 153.738281 18.367188 155.523438 17.394531 C 156.09375 17.085938 156.722656 16.921875 157.351562 16.921875 C 157.601562 16.921875 157.851562 16.949219 158.09375 17 C 159.15625 17.226562 160.0625 17.902344 160.578125 18.847656 L 164.089844 25.300781 L 164.308594 25.09375 C 164.539062 24.878906 164.792969 24.695312 165.066406 24.546875 L 165.109375 24.523438 C 165.640625 24.234375 166.246094 24.082031 166.859375 24.082031 C 167.628906 24.082031 168.394531 24.324219 169.015625 24.761719 L 169.191406 24.882812 L 169.328125 24.722656 C 169.621094 24.386719 169.964844 24.105469 170.355469 23.894531 L 170.402344 23.871094 C 170.945312 23.574219 171.554688 23.417969 172.171875 23.417969 C 173 23.417969 173.8125 23.703125 174.460938 24.21875 L 174.632812 24.355469 L 174.78125 24.191406 C 175.058594 23.882812 175.386719 23.625 175.75 23.425781 L 175.796875 23.402344 C 176.335938 23.109375 176.941406 22.953125 177.550781 22.953125 C 177.90625 22.953125 178.261719 23.003906 178.605469 23.105469 C 179.550781 23.386719 180.332031 24.015625 180.804688 24.878906 L 185.53125 33.570312 C 185.644531 33.761719 188.140625 38.109375 187.9375 42.074219 C 187.84375 43.945312 186.75 45.667969 185.089844 46.570312 L 174.6875 52.234375 C 173.925781 52.648438 173.058594 52.859375 172.109375 52.859375" fill="#383838"/></g></g></svg>