<?xml version="1.0" encoding="UTF-8" standalone="no"?><svg xmlns="http://www.w3.org/2000/svg" xmlns:xlink="http://www.w3.org/1999/xlink" fill="#000000" height="615.4" preserveAspectRatio="xMidYMid meet" version="1" viewBox="0.0 -0.0 2037.7 615.4" width="2037.7" zoomAndPan="magnify"><defs><clipPath id="a"><path d="M 1760 271 L 2037.679688 271 L 2037.679688 615.378906 L 1760 615.378906 Z M 1760 271"/></clipPath></defs><g><g id="change1_1"><path d="M 1792.25 17.835938 L 225.640625 17.835938 C 110.875 17.835938 17.839844 110.871094 17.839844 225.636719 C 17.839844 340.398438 110.875 433.433594 225.640625 433.433594 L 1792.25 433.433594 C 1907.011719 433.433594 2000.039062 340.398438 2000.039062 225.636719 C 2000.039062 110.871094 1907.011719 17.835938 1792.25 17.835938" fill="#ffffff"/></g><g id="change2_1"><path d="M 225.636719 35.671875 C 120.894531 35.671875 35.679688 120.890625 35.679688 225.636719 C 35.679688 330.378906 120.894531 415.597656 225.636719 415.597656 L 1792.25 415.597656 C 1896.988281 415.597656 1982.199219 330.378906 1982.199219 225.636719 C 1982.199219 120.890625 1896.988281 35.671875 1792.25 35.671875 Z M 1792.25 451.273438 L 225.636719 451.273438 C 101.222656 451.273438 0 350.050781 0 225.636719 C 0 101.21875 101.222656 -0.00390625 225.636719 -0.00390625 L 1792.25 -0.00390625 C 1916.660156 -0.00390625 2017.878906 101.21875 2017.878906 225.636719 C 2017.878906 350.050781 1916.660156 451.273438 1792.25 451.273438" fill="#e60012"/></g><g id="change3_1"><path d="M 1739.46875 255.609375 C 1737.410156 255.609375 1735.359375 254.71875 1733.941406 252.988281 L 1702.199219 214.167969 C 1699.710938 211.117188 1700.160156 206.621094 1703.210938 204.128906 C 1706.261719 201.632812 1710.75 202.078125 1713.25 205.136719 L 1744.988281 243.957031 C 1747.488281 247.011719 1747.039062 251.503906 1743.980469 254 C 1742.660156 255.078125 1741.058594 255.609375 1739.46875 255.609375" fill="#010101"/></g><g id="change3_2"><path d="M 1723.589844 298.714844 C 1722.761719 298.714844 1721.898438 298.570312 1721.070312 298.257812 L 1676.140625 281.28125 C 1672.449219 279.886719 1670.589844 275.769531 1671.988281 272.082031 C 1673.378906 268.394531 1677.5 266.550781 1681.179688 267.929688 L 1726.121094 284.902344 C 1729.800781 286.296875 1731.660156 290.414062 1730.269531 294.101562 C 1729.191406 296.960938 1726.46875 298.714844 1723.589844 298.714844" fill="#010101"/></g><g id="change3_3"><path d="M 1783.769531 247.085938 C 1780.421875 247.085938 1777.441406 244.726562 1776.769531 241.324219 L 1767.28125 192.804688 C 1766.519531 188.9375 1769.039062 185.1875 1772.910156 184.425781 C 1776.839844 183.648438 1780.53125 186.195312 1781.289062 190.058594 L 1790.78125 238.578125 C 1791.539062 242.445312 1789.011719 246.195312 1785.148438 246.953125 C 1784.679688 247.046875 1784.21875 247.085938 1783.769531 247.085938" fill="#010101"/></g><g id="change1_2"><path d="M 2030.539062 430.136719 L 1768.121094 278.578125 L 1809.691406 578.753906 L 1876.601562 494.367188 L 1953.238281 608.246094 L 2003.800781 574.222656 L 1927.171875 460.34375 L 2030.539062 430.136719" fill="#ffffff"/></g><g clip-path="url(#a)" id="change3_4"><path d="M 1876.609375 487.230469 C 1876.699219 487.230469 1876.789062 487.230469 1876.878906 487.238281 C 1879.160156 487.328125 1881.25 488.492188 1882.53125 490.382812 L 1955.171875 598.34375 L 1993.898438 572.285156 L 1921.25 464.324219 C 1919.980469 462.4375 1919.679688 460.054688 1920.460938 457.914062 C 1921.230469 455.769531 1922.980469 454.132812 1925.171875 453.488281 L 2012.519531 427.972656 L 1777.191406 292.054688 L 1814.46875 561.242188 L 1871.019531 489.933594 C 1872.371094 488.222656 1874.429688 487.230469 1876.609375 487.230469 Z M 1953.238281 615.378906 C 1950.949219 615.378906 1948.691406 614.273438 1947.308594 612.230469 L 1876.128906 506.441406 L 1815.28125 583.1875 C 1813.5 585.429688 1810.589844 586.390625 1807.808594 585.640625 C 1805.050781 584.886719 1803.011719 582.566406 1802.621094 579.730469 L 1761.058594 279.550781 C 1760.679688 276.855469 1761.878906 274.179688 1764.140625 272.652344 C 1766.410156 271.136719 1769.328125 271.042969 1771.691406 272.394531 L 2034.101562 423.957031 C 2036.578125 425.386719 2037.96875 428.152344 2037.621094 430.988281 C 2037.28125 433.824219 2035.28125 436.1875 2032.539062 436.988281 L 1938.53125 464.449219 L 2009.71875 570.238281 C 2010.769531 571.8125 2011.171875 573.738281 2010.800781 575.597656 C 2010.441406 577.449219 2009.351562 579.085938 2007.789062 580.148438 L 1957.21875 614.167969 C 1956 614.988281 1954.621094 615.378906 1953.238281 615.378906" fill="#010101"/></g></g></svg>