<?xml version="1.0" encoding="UTF-8"?><svg xmlns="http://www.w3.org/2000/svg" xmlns:xlink="http://www.w3.org/1999/xlink" height="1727.3" preserveAspectRatio="xMidYMid meet" version="1.0" viewBox="0.0 0.0 4327.8 1727.3" width="4327.8" zoomAndPan="magnify"><defs><clipPath id="a"><path d="M 3254 314 L 4327.808594 314 L 4327.808594 1463 L 3254 1463 Z M 3254 314"/></clipPath><clipPath id="b"><path d="M 3505 1271 L 3972 1271 L 3972 1727.308594 L 3505 1727.308594 Z M 3505 1271"/></clipPath><clipPath id="c"><path d="M 1300 1271 L 1767 1271 L 1767 1727.308594 L 1300 1727.308594 Z M 1300 1271"/></clipPath></defs><g><g id="change1_2"><path d="M 3495.054688 95.625 L 3218.644531 1395.449219 C 3207.5 1448.058594 3155.574219 1490.910156 3102.960938 1490.910156 L 1831.066406 1490.910156 C 1813.9375 1490.910156 1802.105469 1477.710938 1804.335938 1460.738281 C 1821.816406 1327.25 1730.308594 1222.539062 1595.945312 1222.539062 C 1461.949219 1222.539062 1326.046875 1326.898438 1286.457031 1460.230469 C 1281.488281 1477.371094 1263.835938 1490.910156 1246.359375 1490.910156 L 1089.046875 1490.910156 C 1036.257812 1490.910156 1002.507812 1448.058594 1013.640625 1395.449219 L 1035.238281 1293.832031 L 164.859375 1293.832031 C 117.554688 1293.832031 79.175781 1255.441406 79.175781 1208.148438 C 79.175781 1160.851562 117.554688 1122.460938 164.859375 1122.460938 L 1292.796875 1122.460938 C 1340.097656 1122.460938 1378.488281 1084.070312 1378.488281 1036.78125 C 1378.488281 989.484375 1340.097656 951.097656 1292.796875 951.097656 L 663.023438 951.097656 C 615.722656 951.097656 577.339844 912.703125 577.339844 865.410156 C 577.339844 818.113281 615.722656 779.726562 663.023438 779.726562 L 1365.628906 779.726562 C 1412.929688 779.726562 1451.316406 741.335938 1451.316406 694.042969 C 1451.316406 646.746094 1412.929688 608.359375 1365.628906 608.359375 L 371.183594 608.359375 C 323.882812 608.359375 285.496094 569.96875 285.496094 522.671875 C 285.496094 475.375 323.882812 436.992188 371.183594 436.992188 L 1438.46875 436.992188 C 1485.757812 436.992188 1524.148438 398.601562 1524.148438 351.308594 C 1524.148438 304.011719 1485.757812 265.621094 1438.46875 265.621094 L 663.023438 265.621094 C 615.722656 265.621094 577.339844 227.234375 577.339844 179.941406 C 577.339844 132.640625 615.722656 94.253906 663.023438 94.253906 L 1290.410156 94.253906 C 1302.058594 42.15625 1353.808594 0 1405.910156 0 L 3419.660156 0 C 3472.445312 0 3506.195312 42.84375 3495.054688 95.625" fill="#e60012"/></g><g clip-path="url(#a)" id="change1_5"><path d="M 4287.546875 818.269531 L 4246.207031 778.644531 C 4238.902344 771.753906 4232.398438 763.601562 4226.824219 754.40625 L 3983.855469 355.289062 C 3967.953125 329.234375 3939.4375 314.285156 3905.558594 314.285156 L 3528.375 314.285156 C 3506.339844 314.285156 3484.644531 332.203125 3479.945312 354.21875 L 3255.804688 1408.820312 C 3249.511719 1438.390625 3268.46875 1462.460938 3298.019531 1462.460938 L 3490.648438 1462.460938 L 3493.089844 1454.789062 C 3535.199219 1322.378906 3667.527344 1222.539062 3800.921875 1222.539062 C 3934.3125 1222.539062 4024.214844 1322.378906 4010.035156 1454.789062 L 4009.210938 1462.460938 L 4102.9375 1462.460938 C 4165.039062 1462.460938 4226.265625 1411.949219 4239.460938 1349.859375 L 4323.945312 952.46875 C 4335.097656 899.902344 4321.847656 850.976562 4287.546875 818.269531" fill="#e60012"/></g><g clip-path="url(#b)" id="change1_6"><path d="M 3714.507812 1613.601562 C 3651.59375 1613.601562 3611.269531 1562.398438 3624.644531 1499.46875 C 3638.023438 1436.539062 3700.101562 1385.347656 3763.015625 1385.347656 C 3825.953125 1385.347656 3866.277344 1436.539062 3852.902344 1499.46875 C 3839.527344 1562.398438 3777.445312 1613.601562 3714.507812 1613.601562 Z M 3787.195312 1271.640625 C 3661.566406 1271.640625 3537.652344 1373.847656 3510.921875 1499.46875 C 3484.242188 1625.101562 3564.722656 1727.308594 3690.351562 1727.308594 C 3815.957031 1727.308594 3939.898438 1625.101562 3966.601562 1499.46875 C 3993.304688 1373.847656 3912.824219 1271.640625 3787.195312 1271.640625" fill="#e60012"/></g><g clip-path="url(#c)" id="change1_1"><path d="M 1509.570312 1613.601562 C 1446.636719 1613.601562 1406.328125 1562.402344 1419.691406 1499.46875 C 1433.074219 1436.542969 1495.140625 1385.351562 1558.074219 1385.351562 C 1621.007812 1385.351562 1661.316406 1436.542969 1647.941406 1499.46875 C 1634.566406 1562.402344 1572.492188 1613.601562 1509.570312 1613.601562 Z M 1582.242188 1271.640625 C 1456.621094 1271.640625 1332.6875 1373.851562 1305.980469 1499.46875 C 1279.289062 1625.101562 1359.765625 1727.308594 1485.398438 1727.308594 C 1611.011719 1727.308594 1734.957031 1625.101562 1761.648438 1499.46875 C 1788.355469 1373.851562 1707.878906 1271.640625 1582.242188 1271.640625" fill="#e60012"/></g><g id="change2_1"><path d="M 3855.382812 417.046875 L 3635.589844 417.046875 C 3599.0625 417.046875 3563.128906 446.671875 3555.351562 483.214844 L 3494.84375 767.878906 C 3487.089844 804.421875 3510.398438 834.046875 3546.953125 834.046875 L 3953.8125 834.046875 C 4006.445312 834.046875 4050.453125 775.542969 4030.894531 731.542969 L 3904.335938 446.878906 C 3896.0625 428.261719 3877.675781 417.046875 3855.382812 417.046875" fill="#fff"/></g><g id="change1_3"><path d="M 448.472656 179.925781 C 448.472656 227.226562 410.085938 265.617188 362.789062 265.617188 L 204.613281 265.617188 C 157.316406 265.617188 118.929688 227.226562 118.929688 179.925781 C 118.929688 132.628906 157.316406 94.246094 204.613281 94.246094 L 362.789062 94.246094 C 410.085938 94.246094 448.472656 132.628906 448.472656 179.925781" fill="#e60012"/></g><g id="change1_4"><path d="M 329.714844 865.410156 C 329.714844 912.703125 291.324219 951.09375 244.027344 951.09375 L 85.683594 951.09375 C 38.386719 951.09375 0 912.703125 0 865.410156 C 0 818.113281 38.386719 779.726562 85.683594 779.726562 L 244.027344 779.726562 C 291.324219 779.726562 329.714844 818.113281 329.714844 865.410156" fill="#e60012"/></g><g id="change2_2"><path d="M 1770.132812 96.480469 L 2063.125 96.480469 L 2037.238281 229.621094 L 1917.25 229.621094 L 1892.730469 355.777344 L 1999.570312 355.777344 L 1974.980469 482.339844 L 1868.125 482.339844 L 1813.816406 761.769531 L 1640.816406 761.769531 L 1770.132812 96.480469" fill="#fff"/></g><g id="change2_3"><path d="M 2255.917969 210.304688 L 2227.144531 358.242188 C 2246.59375 358.242188 2260.746094 355.570312 2269.597656 350.226562 C 2278.453125 344.886719 2285.71875 327.5625 2291.410156 298.246094 L 2298.523438 261.671875 C 2302.625 240.582031 2301.535156 226.742188 2295.296875 220.167969 C 2289.03125 213.589844 2275.894531 210.304688 2255.917969 210.304688 Z M 2105.035156 96.472656 L 2227.492188 96.472656 C 2309.117188 96.472656 2363.785156 99.636719 2391.46875 105.933594 C 2419.132812 112.242188 2439.566406 128.332031 2452.765625 154.214844 C 2465.945312 180.109375 2467.019531 221.402344 2456.003906 278.109375 C 2445.9375 329.886719 2432.726562 364.683594 2416.394531 382.484375 C 2400.0625 400.296875 2372.640625 410.980469 2334.148438 414.539062 C 2366.734375 423.03125 2387.546875 434.402344 2396.550781 448.644531 C 2405.558594 462.890625 2410.355469 475.972656 2410.914062 487.886719 C 2411.476562 499.804688 2406.527344 532.613281 2396.097656 586.304688 L 2362 761.769531 L 2201.308594 761.769531 L 2244.292969 540.691406 C 2251.210938 505.082031 2252.679688 483.027344 2248.726562 474.535156 C 2244.761719 466.042969 2230.867188 461.792969 2207.03125 461.792969 L 2148.714844 761.769531 L 1975.707031 761.769531 L 2105.035156 96.472656" fill="#fff"/></g><g id="change2_4"><path d="M 2558.296875 96.480469 L 2846.761719 96.480469 L 2820.878906 229.621094 L 2705.417969 229.621094 L 2680.898438 355.773438 L 2788.953125 355.773438 L 2764.363281 482.339844 L 2656.273438 482.339844 L 2627.859375 628.632812 L 2754.828125 628.632812 L 2728.945312 761.769531 L 2428.96875 761.769531 L 2558.296875 96.480469" fill="#fff"/></g><g id="change2_5"><path d="M 2907.996094 96.480469 L 3196.460938 96.480469 L 3170.578125 229.621094 L 3055.113281 229.621094 L 3030.578125 355.773438 L 3138.671875 355.773438 L 3114.058594 482.339844 L 3005.988281 482.339844 L 2977.554688 628.632812 L 3104.53125 628.632812 L 3078.644531 761.769531 L 2778.667969 761.769531 L 2907.996094 96.480469" fill="#fff"/></g><g id="change2_6"><path d="M 1711.90625 888.625 L 1670.878906 1099.707031 C 1682.902344 1099.707031 1690.773438 1097.308594 1694.488281 1092.476562 C 1698.195312 1087.65625 1702.136719 1074.539062 1706.300781 1053.136719 L 1730.527344 928.464844 C 1733.359375 913.929688 1734.699219 904.613281 1734.578125 900.519531 C 1734.445312 896.421875 1732.914062 893.417969 1729.988281 891.5 C 1727.054688 889.585938 1721.023438 888.625 1711.90625 888.625 Z M 1639.140625 833.722656 L 1701.578125 833.722656 C 1741.878906 833.722656 1768.773438 835.574219 1782.257812 839.273438 C 1795.730469 842.972656 1805.355469 849.054688 1811.117188 857.507812 C 1816.863281 865.964844 1819.667969 875.378906 1819.5 885.753906 C 1819.332031 896.125 1816.296875 916.507812 1810.390625 946.898438 L 1788.542969 1059.277344 C 1782.949219 1088.085938 1777.847656 1107.347656 1773.25 1117.058594 C 1768.660156 1126.765625 1762.453125 1134.367188 1754.648438 1139.847656 C 1746.847656 1145.335938 1737.78125 1149.167969 1727.433594 1151.347656 C 1717.105469 1153.527344 1701.957031 1154.617188 1682.007812 1154.617188 L 1576.769531 1154.617188 L 1639.140625 833.722656" fill="#fff"/></g><g id="change2_7"><path d="M 1863.496094 833.730469 L 2002.632812 833.730469 L 1990.140625 897.945312 L 1934.457031 897.945312 L 1922.628906 958.792969 L 1974.757812 958.792969 L 1962.890625 1019.84375 L 1910.757812 1019.84375 L 1897.046875 1090.402344 L 1958.28125 1090.402344 L 1945.796875 1154.621094 L 1801.117188 1154.621094 L 1863.496094 833.730469" fill="#fff"/></g><g id="change2_8"><path d="M 2115.613281 833.726562 L 2065.714844 1090.402344 L 2116.457031 1090.402344 L 2103.980469 1154.621094 L 1969.785156 1154.621094 L 2032.164062 833.726562 L 2115.613281 833.726562" fill="#fff"/></g><g id="change2_9"><path d="M 2270.003906 833.730469 L 2207.625 1154.621094 L 2124.195312 1154.621094 L 2186.570312 833.730469 L 2270.003906 833.730469" fill="#fff"/></g><g id="change2_10"><path d="M 2501.902344 833.730469 L 2397.070312 1154.621094 L 2270.316406 1154.621094 L 2284.46875 833.730469 L 2372.480469 833.730469 C 2365.527344 922.121094 2358.28125 996.914062 2350.761719 1058.09375 C 2367.09375 996.257812 2382.347656 941.359375 2396.5 893.402344 L 2413.90625 833.730469 L 2501.902344 833.730469" fill="#fff"/></g><g id="change2_11"><path d="M 2515.980469 833.726562 L 2655.125 833.726562 L 2642.644531 897.941406 L 2586.9375 897.941406 L 2575.109375 958.792969 L 2627.238281 958.792969 L 2615.378906 1019.839844 L 2563.253906 1019.839844 L 2549.539062 1090.398438 L 2610.785156 1090.398438 L 2598.308594 1154.621094 L 2453.609375 1154.621094 L 2515.980469 833.726562" fill="#fff"/></g><g id="change2_12"><path d="M 2757.421875 888.628906 L 2743.5625 959.984375 C 2752.929688 959.984375 2759.753906 958.691406 2764.035156 956.117188 C 2768.296875 953.542969 2771.804688 945.183594 2774.539062 931.042969 L 2777.980469 913.40625 C 2779.960938 903.230469 2779.433594 896.558594 2776.417969 893.386719 C 2773.402344 890.214844 2767.066406 888.628906 2757.421875 888.628906 Z M 2684.640625 833.726562 L 2743.71875 833.726562 C 2783.082031 833.726562 2809.449219 835.246094 2822.816406 838.285156 C 2836.164062 841.328125 2846.003906 849.085938 2852.371094 861.574219 C 2858.722656 874.0625 2859.25 893.980469 2853.933594 921.332031 C 2849.074219 946.304688 2842.707031 963.085938 2834.832031 971.675781 C 2826.953125 980.269531 2813.726562 985.421875 2795.152344 987.136719 C 2810.886719 991.234375 2820.902344 996.71875 2825.253906 1003.589844 C 2829.601562 1010.460938 2831.917969 1016.769531 2832.183594 1022.519531 C 2832.460938 1028.261719 2830.078125 1044.089844 2825.042969 1069.980469 L 2808.589844 1154.621094 L 2731.089844 1154.621094 L 2751.824219 1047.980469 C 2755.15625 1030.8125 2755.875 1020.171875 2753.964844 1016.070312 C 2752.035156 1011.980469 2745.335938 1009.929688 2733.84375 1009.929688 L 2705.726562 1154.621094 L 2622.28125 1154.621094 L 2684.640625 833.726562" fill="#fff"/></g><g id="change2_13"><path d="M 3081.058594 833.726562 L 2980.40625 1038.46875 L 2957.835938 1154.621094 L 2880.542969 1154.621094 L 2903.113281 1038.46875 L 2884.230469 833.726562 L 2960.898438 833.726562 C 2960.6875 896.363281 2959.253906 938.515625 2956.585938 960.179688 C 2967.851562 925.945312 2983.808594 883.792969 3004.390625 833.726562 L 3081.058594 833.726562" fill="#fff"/></g></g></svg>