<?xml version="1.0" encoding="UTF-8"?><svg xmlns="http://www.w3.org/2000/svg" xmlns:xlink="http://www.w3.org/1999/xlink" height="361.9" preserveAspectRatio="xMidYMid meet" version="1.0" viewBox="61.8 24.3 301.7 361.9" width="301.7" zoomAndPan="magnify"><g><g id="change1_1"><path d="M 306.675781 214.550781 C 306.511719 216.125 306.402344 217.570312 306.34375 218.933594 C 306.277344 220.511719 306.234375 222.105469 306.21875 223.699219 C 307.070312 220.738281 307.515625 217.5 307.5625 213.957031 C 307.277344 214.167969 306.980469 214.363281 306.675781 214.550781 Z M 67.808594 383.199219 C 66.992188 383.199219 66.214844 382.871094 65.652344 382.285156 C 65.085938 381.699219 64.78125 380.910156 64.808594 380.101562 C 66.136719 340.558594 96.144531 304.949219 143.402344 286.515625 C 138.335938 278.125 130.96875 269.867188 127.226562 265.671875 L 126.070312 264.371094 C 119.472656 256.902344 115.210938 246.230469 114.671875 235.824219 C 114.484375 232.152344 115.097656 228.703125 115.691406 225.363281 C 116.257812 222.195312 116.789062 219.207031 116.609375 216.230469 C 116.492188 214.234375 116.34375 212.230469 116.199219 210.21875 C 116.175781 209.890625 116.148438 209.5625 116.128906 209.234375 C 115.941406 209.238281 115.757812 209.242188 115.578125 209.242188 C 96.394531 209.242188 80.789062 193.09375 80.789062 173.242188 C 80.789062 156.382812 92.347656 141.695312 108.046875 138.09375 C 112.589844 84.019531 158.070312 42 212.601562 42 C 267.128906 42 312.609375 84.019531 317.152344 138.09375 C 332.851562 141.695312 344.414062 156.386719 344.414062 173.242188 C 344.414062 188.316406 335.125 201.90625 321.578125 207.050781 C 321.535156 209.289062 321.515625 211.351562 321.515625 213.308594 C 321.515625 227.117188 316.882812 238.371094 307.738281 246.785156 C 308.574219 252.6875 309.742188 258.5625 311.222656 264.28125 C 313.640625 273.628906 318.597656 282.101562 325.558594 288.789062 C 326.519531 289.714844 326.757812 291.164062 326.136719 292.347656 C 325.613281 293.347656 324.578125 293.953125 323.480469 293.953125 C 323.28125 293.953125 323.082031 293.933594 322.882812 293.894531 C 321.902344 293.691406 320.886719 293.507812 319.851562 293.316406 C 313.800781 292.203125 306.601562 290.882812 301.824219 286.089844 C 300.886719 288.511719 299.910156 291.324219 299.03125 294.410156 C 336.371094 314.257812 359.253906 346.140625 360.390625 380.101562 C 360.417969 380.910156 360.113281 381.699219 359.550781 382.285156 C 358.984375 382.871094 358.207031 383.199219 357.394531 383.199219 L 67.808594 383.199219" fill="#fff"/></g><g id="change2_1"><path d="M 212.601562 39 C 184.9375 39 158.636719 49.453125 138.535156 68.433594 C 119.632812 86.289062 107.921875 110.039062 105.257812 135.722656 C 98.207031 137.785156 91.839844 141.949219 86.984375 147.742188 C 81.054688 154.820312 77.789062 163.875 77.789062 173.242188 C 77.789062 193.96875 93.535156 210.972656 113.332031 212.171875 C 113.433594 213.585938 113.53125 215.015625 113.617188 216.410156 C 113.773438 219.03125 113.269531 221.851562 112.738281 224.839844 C 112.113281 228.34375 111.46875 231.964844 111.675781 235.980469 C 112.246094 247.039062 116.789062 258.394531 123.820312 266.355469 C 124.164062 266.742188 124.554688 267.183594 124.988281 267.667969 C 128.21875 271.289062 134.195312 277.988281 138.933594 285.082031 C 92.492188 304.324219 63.148438 340.191406 61.808594 380 C 61.757812 381.625 62.363281 383.203125 63.492188 384.371094 C 64.625 385.539062 66.179688 386.199219 67.808594 386.199219 L 357.394531 386.199219 C 359.019531 386.199219 360.574219 385.539062 361.707031 384.371094 C 362.835938 383.203125 363.445312 381.625 363.390625 380 C 362.785156 361.933594 356.253906 344.09375 344.507812 328.410156 C 334.15625 314.589844 319.734375 302.394531 302.605469 292.933594 C 302.808594 292.285156 303.015625 291.648438 303.226562 291.03125 C 308.25 294.234375 314.347656 295.355469 319.308594 296.265625 C 320.324219 296.453125 321.324219 296.636719 322.285156 296.832031 C 322.683594 296.914062 323.085938 296.953125 323.480469 296.953125 C 325.679688 296.953125 327.742188 295.742188 328.792969 293.738281 C 330.035156 291.375 329.5625 288.476562 327.636719 286.625 C 321.078125 280.324219 316.40625 272.339844 314.128906 263.527344 C 312.804688 258.414062 311.730469 253.164062 310.933594 247.890625 C 319.949219 239.019531 324.515625 227.40625 324.515625 213.308594 C 324.515625 211.953125 324.523438 210.546875 324.546875 209.066406 C 330.535156 206.394531 335.847656 202.113281 339.800781 196.714844 C 344.78125 189.90625 347.414062 181.789062 347.414062 173.242188 C 347.414062 163.875 344.148438 154.820312 338.21875 147.742188 C 333.363281 141.949219 326.996094 137.785156 319.945312 135.722656 C 317.28125 110.039062 305.566406 86.289062 286.664062 68.433594 C 266.5625 49.453125 240.261719 39 212.601562 39 Z M 309.621094 206.242188 C 309.53125 206.242188 309.441406 206.234375 309.347656 206.234375 C 308.644531 209.132812 306.585938 211.496094 303.871094 212.613281 C 303.628906 214.660156 303.4375 216.722656 303.347656 218.804688 C 303.109375 224.308594 303.179688 229.832031 303.539062 235.339844 C 308 229.761719 310.570312 222.578125 310.570312 213.308594 C 310.570312 210.941406 310.601562 208.574219 310.648438 206.214844 C 310.308594 206.226562 309.964844 206.242188 309.621094 206.242188 M 212.601562 45 C 266.777344 45 311.027344 87.257812 314.328125 140.605469 C 329.65625 142.964844 341.414062 156.675781 341.414062 173.242188 C 341.414062 188.21875 331.796875 200.859375 318.621094 204.890625 C 318.558594 207.683594 318.515625 210.5 318.515625 213.308594 C 318.515625 226.871094 313.828125 237.667969 304.550781 245.605469 C 305.410156 252.15625 306.667969 258.652344 308.316406 265.03125 C 310.878906 274.925781 316.121094 283.882812 323.480469 290.953125 C 315.421875 289.3125 304.992188 288.519531 301.167969 279.886719 C 299.050781 284.574219 296.984375 290.171875 295.507812 295.957031 C 332.027344 314.640625 356.222656 345.332031 357.394531 380.199219 L 67.808594 380.199219 C 69.160156 339.859375 101.328125 305.113281 147.742188 288.082031 C 142.105469 277.46875 132.125 266.691406 128.316406 262.382812 C 121.953125 255.179688 118.15625 245.132812 117.667969 235.671875 C 117.324219 228.976562 120 222.671875 119.605469 216.054688 C 119.40625 212.738281 119.136719 209.402344 118.910156 206.050781 C 117.8125 206.167969 116.703125 206.242188 115.578125 206.242188 C 98.019531 206.242188 83.789062 191.464844 83.789062 173.242188 C 83.789062 156.675781 95.546875 142.964844 110.871094 140.605469 C 114.171875 87.257812 158.421875 45 212.601562 45" fill="#040606"/></g><g id="change3_1"><path d="M 303.980469 240.71875 C 304.800781 248.925781 306.257812 257.070312 308.316406 265.03125 C 310.878906 274.925781 316.121094 283.882812 323.480469 290.953125 C 315.421875 289.3125 304.992188 288.519531 301.167969 279.886719 C 296.542969 290.113281 292.148438 304.683594 293.636719 316.054688 C 294.777344 324.785156 298.859375 331.117188 299.03125 340.148438 C 295.730469 331.679688 290.296875 323.941406 283.832031 317.671875 C 279.132812 313.121094 273.738281 307.875 268.378906 304.15625 C 260.265625 298.53125 250.476562 298.410156 240.9375 296.871094 C 226.554688 294.550781 212.539062 292.316406 198.300781 289.488281 C 188.933594 287.625 181.160156 287.617188 176.839844 277.707031 C 169.875 289.058594 157.109375 302.347656 145.898438 310.914062 C 163.898438 300.828125 135.40625 270.40625 128.316406 262.382812 C 121.953125 255.179688 118.15625 245.132812 117.667969 235.671875 C 117.324219 228.976562 120 222.671875 119.605469 216.054688 C 119.234375 209.816406 118.578125 203.511719 118.515625 197.140625 C 118.382812 183.328125 118.585938 169.515625 118.945312 155.707031 C 119.359375 139.921875 119.941406 124.132812 120.851562 108.371094 L 304.347656 108.371094 C 305.621094 108.371094 306.945312 173.5 307.402344 177.863281 C 308.855469 191.691406 303.945312 204.816406 303.347656 218.804688 C 303.035156 226.101562 303.253906 233.433594 303.980469 240.71875" fill="#361f16"/></g><g id="change2_2"><path d="M 303.980469 240.71875 L 302.984375 240.820312 C 303.808594 249.074219 305.277344 257.269531 307.351562 265.28125 C 309.957031 275.355469 315.296875 284.476562 322.789062 291.675781 L 323.480469 290.953125 L 323.679688 289.972656 C 319.601562 289.144531 315.027344 288.535156 311.078125 287.101562 C 309.101562 286.386719 307.289062 285.472656 305.761719 284.246094 C 304.230469 283.019531 302.972656 281.488281 302.082031 279.480469 C 301.921875 279.121094 301.566406 278.886719 301.171875 278.886719 C 300.777344 278.886719 300.417969 279.113281 300.257812 279.476562 C 296.21875 288.417969 292.347656 300.589844 292.339844 311.289062 C 292.339844 312.960938 292.4375 314.597656 292.644531 316.183594 C 293.230469 320.671875 294.566406 324.503906 295.742188 328.285156 C 296.921875 332.070312 297.949219 335.800781 298.03125 340.167969 L 299.03125 340.148438 L 299.964844 339.785156 C 296.601562 331.160156 291.085938 323.316406 284.527344 316.953125 C 279.828125 312.402344 274.40625 307.125 268.949219 303.335938 C 264.738281 300.414062 260.113281 298.941406 255.386719 298 C 250.660156 297.0625 245.816406 296.644531 241.097656 295.882812 C 226.714844 293.5625 212.710938 291.332031 198.492188 288.507812 C 193.757812 287.570312 189.519531 287.09375 186.050781 285.6875 C 184.316406 284.988281 182.769531 284.066406 181.390625 282.746094 C 180.011719 281.421875 178.792969 279.683594 177.753906 277.308594 C 177.605469 276.964844 177.28125 276.734375 176.90625 276.710938 C 176.535156 276.683594 176.179688 276.863281 175.984375 277.183594 C 169.128906 288.378906 156.402344 301.636719 145.292969 310.121094 C 144.875 310.441406 144.777344 311.027344 145.066406 311.464844 C 145.351562 311.902344 145.929688 312.046875 146.390625 311.789062 C 148.621094 310.539062 150.242188 308.949219 151.277344 307.117188 C 152.320312 305.28125 152.769531 303.226562 152.769531 301.078125 C 152.765625 297.542969 151.582031 293.738281 149.773438 289.890625 C 147.054688 284.121094 142.898438 278.25 138.910156 273.21875 C 134.921875 268.195312 131.09375 264.015625 129.066406 261.722656 C 122.871094 254.71875 119.140625 244.855469 118.667969 235.617188 C 118.648438 235.230469 118.640625 234.839844 118.640625 234.449219 C 118.636719 231.675781 119.125 228.90625 119.625 226.085938 C 120.128906 223.265625 120.644531 220.398438 120.644531 217.417969 C 120.644531 216.945312 120.632812 216.472656 120.605469 215.992188 C 120.230469 209.726562 119.578125 203.4375 119.515625 197.132812 C 119.488281 194.21875 119.476562 191.304688 119.476562 188.390625 C 119.476562 177.503906 119.660156 166.617188 119.945312 155.734375 C 120.359375 139.957031 120.941406 124.175781 121.851562 108.425781 L 120.851562 108.371094 L 120.851562 109.371094 L 304.347656 109.371094 L 304.347656 108.417969 L 303.757812 109.164062 C 303.867188 109.257812 304.085938 109.371094 304.347656 109.371094 L 304.347656 108.417969 L 303.757812 109.164062 L 304.234375 108.5625 L 303.519531 108.867188 C 303.539062 108.894531 303.539062 108.976562 303.757812 109.164062 L 304.234375 108.5625 L 303.519531 108.867188 L 303.726562 108.78125 L 303.515625 108.859375 L 303.519531 108.867188 L 303.726562 108.78125 L 303.515625 108.859375 C 303.515625 108.859375 303.550781 108.984375 303.585938 109.171875 C 303.71875 109.90625 303.871094 111.550781 304.019531 113.765625 C 304.539062 121.550781 305.039062 136.695312 305.460938 150.328125 C 305.667969 157.144531 305.859375 163.589844 306.019531 168.550781 C 306.097656 171.035156 306.171875 173.148438 306.234375 174.757812 C 306.300781 176.371094 306.355469 177.453125 306.410156 177.96875 C 306.589844 179.699219 306.671875 181.421875 306.671875 183.140625 C 306.683594 194.847656 302.890625 206.382812 302.347656 218.761719 C 302.253906 220.933594 302.207031 223.105469 302.207031 225.28125 C 302.207031 230.464844 302.472656 235.652344 302.984375 240.820312 L 303.980469 240.71875 L 304.976562 240.621094 C 304.46875 235.519531 304.207031 230.398438 304.207031 225.28125 C 304.207031 223.136719 304.253906 220.988281 304.347656 218.847656 C 304.847656 206.828125 308.660156 195.277344 308.671875 183.140625 C 308.671875 181.359375 308.589844 179.566406 308.398438 177.761719 C 308.375 177.53125 308.339844 177.023438 308.308594 176.316406 C 308.042969 170.96875 307.601562 153.957031 307.078125 138.300781 C 306.816406 130.472656 306.53125 122.976562 306.238281 117.429688 C 306.09375 114.65625 305.941406 112.367188 305.792969 110.757812 C 305.714844 109.949219 305.640625 109.3125 305.558594 108.839844 C 305.515625 108.601562 305.472656 108.410156 305.40625 108.210938 C 305.367188 108.105469 305.332031 108.003906 305.230469 107.851562 C 305.179688 107.773438 305.109375 107.679688 304.972656 107.578125 C 304.84375 107.476562 304.613281 107.367188 304.347656 107.371094 L 120.851562 107.371094 C 120.320312 107.371094 119.882812 107.78125 119.855469 108.3125 C 118.945312 124.089844 118.363281 139.890625 117.949219 155.679688 C 117.660156 166.578125 117.476562 177.480469 117.476562 188.390625 C 117.476562 191.308594 117.488281 194.230469 117.515625 197.152344 C 117.578125 203.582031 118.238281 209.90625 118.605469 216.113281 C 118.632812 216.546875 118.644531 216.980469 118.644531 217.417969 C 118.644531 220.160156 118.160156 222.914062 117.65625 225.734375 C 117.15625 228.554688 116.640625 231.441406 116.640625 234.449219 C 116.640625 234.871094 116.648438 235.296875 116.671875 235.722656 C 117.175781 245.410156 121.03125 255.640625 127.566406 263.046875 C 130.296875 266.132812 136.128906 272.46875 141.265625 279.660156 C 143.835938 283.25 146.226562 287.054688 147.964844 290.742188 C 149.703125 294.429688 150.773438 298 150.769531 301.078125 C 150.765625 302.953125 150.382812 304.640625 149.539062 306.128906 C 148.691406 307.621094 147.378906 308.9375 145.410156 310.042969 L 145.898438 310.914062 L 146.507812 311.710938 C 157.820312 303.058594 170.621094 289.734375 177.691406 278.230469 L 176.839844 277.707031 L 175.921875 278.105469 C 177.046875 280.683594 178.417969 282.664062 180.003906 284.1875 C 182.390625 286.476562 185.222656 287.703125 188.273438 288.519531 C 191.328125 289.339844 194.632812 289.777344 198.105469 290.46875 C 212.367188 293.304688 226.398438 295.535156 240.78125 297.859375 C 245.597656 298.632812 250.417969 299.050781 254.996094 299.964844 C 259.578125 300.875 263.90625 302.273438 267.808594 304.980469 C 273.066406 308.625 278.441406 313.839844 283.136719 318.390625 C 289.507812 324.566406 294.863281 332.195312 298.101562 340.511719 C 298.277344 340.964844 298.75 341.226562 299.226562 341.132812 C 299.703125 341.035156 300.039062 340.617188 300.03125 340.132812 C 299.941406 335.464844 298.839844 331.511719 297.652344 327.691406 C 296.457031 323.867188 295.179688 320.164062 294.625 315.925781 C 294.433594 314.4375 294.339844 312.886719 294.339844 311.289062 C 294.332031 301.066406 298.117188 289.046875 302.078125 280.300781 L 301.167969 279.886719 L 300.253906 280.292969 C 301.273438 282.601562 302.757812 284.40625 304.511719 285.808594 C 307.144531 287.910156 310.355469 289.121094 313.636719 289.972656 C 316.921875 290.828125 320.296875 291.324219 323.28125 291.933594 C 323.714844 292.019531 324.160156 291.808594 324.367188 291.417969 C 324.570312 291.023438 324.492188 290.539062 324.171875 290.230469 C 316.945312 283.289062 311.800781 274.496094 309.285156 264.78125 C 307.238281 256.867188 305.789062 248.773438 304.976562 240.621094 L 303.980469 240.71875" fill="#040606"/></g><g id="change4_1"><path d="M 357.394531 380.199219 C 355.472656 322.902344 291.382812 276.890625 212.601562 276.890625 C 133.820312 276.890625 69.730469 322.902344 67.808594 380.199219 L 357.394531 380.199219" fill="#bf1c2e"/></g><g id="change2_3"><path d="M 357.394531 380.199219 L 358.394531 380.167969 C 357.417969 351.140625 340.695312 325.039062 314.398438 306.242188 C 288.097656 287.441406 252.183594 275.890625 212.601562 275.890625 C 173.015625 275.890625 137.105469 287.441406 110.800781 306.242188 C 84.503906 325.039062 67.78125 351.140625 66.808594 380.167969 C 66.796875 380.4375 66.898438 380.699219 67.089844 380.894531 C 67.277344 381.089844 67.535156 381.199219 67.808594 381.199219 L 357.394531 381.199219 C 357.664062 381.199219 357.925781 381.089844 358.113281 380.894531 C 358.300781 380.699219 358.402344 380.4375 358.394531 380.167969 L 357.394531 380.199219 L 357.394531 379.199219 L 67.808594 379.199219 L 67.808594 380.199219 L 68.804688 380.234375 C 69.753906 351.964844 86.039062 326.410156 111.964844 307.871094 C 137.878906 289.339844 173.402344 277.886719 212.601562 277.886719 C 251.796875 277.886719 287.320312 289.339844 313.238281 307.871094 C 339.160156 326.410156 355.445312 351.964844 356.394531 380.234375 L 357.394531 380.199219 L 357.394531 379.199219 L 357.394531 380.199219" fill="#040606"/></g><g id="change5_1"><path d="M 173.304688 208.445312 L 173.304688 288.378906 C 173.304688 310.078125 190.898438 367.199219 212.601562 367.199219 C 234.300781 367.199219 251.894531 310.078125 251.894531 288.378906 L 251.894531 208.445312 L 173.304688 208.445312" fill="#e39573"/></g><g id="change2_4"><path d="M 173.304688 208.445312 L 172.304688 208.445312 L 172.304688 288.378906 C 172.308594 293.933594 173.421875 301.617188 175.421875 310.082031 C 178.421875 322.769531 183.421875 337.167969 189.757812 348.472656 C 192.929688 354.125 196.429688 359.007812 200.234375 362.519531 C 204.035156 366.027344 208.1875 368.199219 212.601562 368.199219 C 215.535156 368.203125 218.375 367.230469 221.050781 365.550781 C 225.734375 362.605469 229.996094 357.503906 233.828125 351.230469 C 239.566406 341.820312 244.316406 329.734375 247.648438 318.191406 C 250.976562 306.640625 252.890625 295.664062 252.894531 288.378906 L 252.894531 208.445312 C 252.894531 208.183594 252.789062 207.925781 252.601562 207.738281 C 252.414062 207.550781 252.15625 207.445312 251.894531 207.445312 L 173.304688 207.445312 C 173.042969 207.445312 172.785156 207.550781 172.597656 207.738281 C 172.410156 207.925781 172.304688 208.183594 172.304688 208.445312 L 173.304688 208.445312 L 173.304688 209.445312 L 250.894531 209.445312 L 250.894531 288.378906 C 250.898438 293.675781 249.8125 301.269531 247.832031 309.621094 C 244.871094 322.152344 239.902344 336.429688 233.695312 347.492188 C 230.597656 353.027344 227.183594 357.753906 223.605469 361.050781 C 220.023438 364.359375 216.324219 366.203125 212.601562 366.199219 C 210.109375 366.199219 207.652344 365.386719 205.210938 363.855469 C 200.945312 361.1875 196.808594 356.3125 193.078125 350.191406 C 187.472656 341.007812 182.761719 329.046875 179.472656 317.636719 C 176.175781 306.226562 174.300781 295.335938 174.304688 288.378906 L 174.304688 208.445312 L 173.304688 208.445312 L 173.304688 209.445312 L 173.304688 208.445312" fill="#040606"/></g><g id="change5_2"><path d="M 298.695312 165.628906 C 298.695312 217.320312 248.96875 276.890625 212.601562 276.890625 C 182.9375 276.890625 126.503906 217.320312 126.503906 165.628906 C 126.503906 113.933594 165.050781 72.027344 212.601562 72.027344 C 260.148438 72.027344 298.695312 113.933594 298.695312 165.628906" fill="#e39573"/></g><g id="change2_5"><path d="M 298.695312 165.628906 L 297.695312 165.628906 C 297.707031 191.152344 285.375 218.8125 268.503906 240.019531 C 260.074219 250.625 250.515625 259.617188 240.847656 265.9375 C 231.183594 272.261719 221.414062 275.894531 212.601562 275.890625 C 205.519531 275.902344 196.554688 272.277344 187.191406 265.945312 C 173.140625 256.453125 158.175781 240.941406 146.765625 223.011719 C 135.351562 205.082031 127.496094 184.738281 127.503906 165.628906 C 127.503906 140.03125 137.046875 116.871094 152.457031 100.117188 C 167.867188 83.367188 189.121094 73.027344 212.601562 73.027344 C 236.074219 73.027344 257.328125 83.367188 272.742188 100.117188 C 288.152344 116.871094 297.695312 140.027344 297.695312 165.628906 L 299.695312 165.628906 C 299.695312 139.53125 289.964844 115.886719 274.214844 98.765625 C 258.46875 81.640625 236.671875 71.023438 212.601562 71.027344 C 188.527344 71.023438 166.730469 81.640625 150.984375 98.765625 C 135.230469 115.886719 125.503906 139.53125 125.503906 165.628906 C 125.519531 191.839844 139.746094 219.800781 157.660156 241.285156 C 166.621094 252.023438 176.515625 261.144531 186.074219 267.601562 C 195.636719 274.050781 204.851562 277.875 212.601562 277.886719 C 221.96875 277.882812 232.058594 274.070312 241.941406 267.609375 C 256.769531 257.910156 271.171875 242.21875 281.90625 224.058594 C 292.632812 205.894531 299.691406 185.253906 299.695312 165.628906 L 298.695312 165.628906" fill="#040606"/></g><g id="change3_2"><path d="M 127.058594 150.609375 C 127.058594 150.609375 200.558594 149.777344 231.253906 104.695312 C 231.253906 104.695312 257.300781 162.09375 298.144531 150.609375 L 298.144531 95.933594 C 298.144531 95.933594 219.765625 24.328125 127.058594 97.644531 L 127.058594 150.609375" fill="#361f16"/></g><g id="change2_6"><path d="M 127.058594 150.609375 L 127.070312 151.609375 C 127.121094 151.609375 145.5625 151.402344 167.898438 145.527344 C 190.226562 139.644531 216.507812 128.109375 232.078125 105.257812 L 231.253906 104.695312 L 230.34375 105.109375 C 230.363281 105.15625 235.769531 117.074219 245.566406 129.046875 C 250.46875 135.03125 256.464844 141.03125 263.46875 145.558594 C 270.46875 150.082031 278.496094 153.128906 287.378906 153.128906 C 290.929688 153.128906 294.613281 152.640625 298.414062 151.574219 C 298.84375 151.453125 299.144531 151.058594 299.144531 150.609375 L 299.144531 95.933594 C 299.144531 95.648438 299.027344 95.382812 298.816406 95.195312 C 298.773438 95.152344 290.140625 87.273438 275.210938 79.386719 C 260.285156 71.503906 239.050781 63.609375 213.816406 63.609375 C 187.984375 63.605469 157.984375 71.90625 126.4375 96.859375 C 126.199219 97.050781 126.058594 97.335938 126.058594 97.644531 L 126.058594 150.609375 C 126.058594 150.878906 126.164062 151.136719 126.355469 151.320312 C 126.546875 151.511719 126.804688 151.613281 127.070312 151.609375 L 127.058594 150.609375 L 128.058594 150.609375 L 128.058594 97.644531 L 127.058594 97.644531 L 127.679688 98.429688 C 158.917969 73.730469 188.414062 65.613281 213.816406 65.609375 C 238.625 65.609375 259.550781 73.378906 274.277344 81.15625 C 281.640625 85.042969 287.449219 88.933594 291.410156 91.84375 C 293.394531 93.300781 294.914062 94.511719 295.933594 95.355469 C 296.445312 95.78125 296.832031 96.109375 297.089844 96.335938 C 297.21875 96.445312 297.3125 96.53125 297.378906 96.589844 L 297.46875 96.671875 L 298.144531 95.933594 L 297.144531 95.933594 L 297.144531 150.609375 L 298.144531 150.609375 L 297.871094 149.648438 C 294.246094 150.667969 290.746094 151.128906 287.378906 151.128906 C 278.960938 151.128906 271.320312 148.246094 264.554688 143.878906 C 254.40625 137.328125 246.28125 127.417969 240.71875 119.144531 C 237.9375 115.011719 235.792969 111.285156 234.347656 108.597656 C 233.625 107.257812 233.078125 106.171875 232.710938 105.425781 C 232.527344 105.054688 232.390625 104.765625 232.296875 104.570312 C 232.207031 104.378906 232.164062 104.28125 232.164062 104.28125 C 232.015625 103.953125 231.695312 103.730469 231.339844 103.699219 C 230.980469 103.667969 230.628906 103.835938 230.425781 104.132812 C 215.304688 126.363281 189.488281 137.78125 167.390625 143.59375 C 156.347656 146.496094 146.25 148.003906 138.917969 148.78125 C 135.253906 149.171875 132.277344 149.378906 130.222656 149.488281 C 129.195312 149.542969 128.398438 149.574219 127.859375 149.589844 C 127.589844 149.601562 127.386719 149.605469 127.25 149.609375 C 127.113281 149.609375 127.046875 149.609375 127.046875 149.609375 L 127.058594 150.609375 L 128.058594 150.609375 L 127.058594 150.609375" fill="#040606"/></g><g id="change6_1"><path d="M 314.457031 143.207031 C 312.460938 88.640625 267.65625 45 212.601562 45 C 157.546875 45 112.738281 88.640625 110.742188 143.207031 L 110.660156 143.207031 L 110.660156 200.0625 L 131.382812 200.0625 L 131.382812 145.191406 C 132.339844 101.144531 168.320312 65.726562 212.601562 65.726562 C 256.878906 65.726562 292.859375 101.144531 293.816406 145.191406 L 293.816406 200.0625 L 314.542969 200.0625 L 314.542969 143.207031 L 314.457031 143.207031" fill="#8f9190"/></g><g id="change2_7"><path d="M 314.457031 143.207031 L 315.457031 143.167969 C 313.441406 88.066406 268.195312 44 212.601562 44 C 157.003906 44 111.757812 88.066406 109.742188 143.167969 L 110.742188 143.207031 L 110.742188 142.207031 L 110.660156 142.207031 C 110.394531 142.207031 110.136719 142.3125 109.953125 142.5 C 109.765625 142.683594 109.660156 142.941406 109.660156 143.207031 L 109.660156 200.0625 C 109.660156 200.332031 109.761719 200.582031 109.953125 200.769531 C 110.140625 200.960938 110.390625 201.0625 110.660156 201.0625 L 131.382812 201.0625 C 131.648438 201.0625 131.902344 200.960938 132.089844 200.769531 C 132.277344 200.582031 132.382812 200.332031 132.382812 200.0625 L 132.382812 145.191406 L 131.382812 145.191406 L 132.382812 145.214844 C 133.328125 101.710938 168.867188 66.722656 212.601562 66.722656 C 256.335938 66.722656 291.871094 101.710938 292.816406 145.214844 L 293.816406 145.191406 L 292.816406 145.191406 L 292.816406 200.0625 C 292.816406 200.332031 292.921875 200.582031 293.109375 200.769531 C 293.300781 200.960938 293.550781 201.0625 293.816406 201.0625 L 314.542969 201.0625 C 314.808594 201.0625 315.058594 200.960938 315.25 200.769531 C 315.4375 200.582031 315.539062 200.332031 315.539062 200.0625 L 315.539062 143.207031 C 315.539062 142.941406 315.433594 142.683594 315.25 142.5 C 315.0625 142.3125 314.804688 142.207031 314.542969 142.207031 L 314.457031 142.207031 L 314.457031 143.207031 L 315.457031 143.167969 L 314.457031 143.207031 L 314.457031 144.207031 L 314.542969 144.207031 L 314.542969 143.207031 L 313.542969 143.207031 L 313.542969 199.0625 L 294.816406 199.0625 L 294.816406 145.171875 C 293.847656 100.578125 257.425781 64.726562 212.601562 64.726562 C 167.773438 64.726562 131.351562 100.578125 130.382812 145.171875 L 130.382812 199.0625 L 111.660156 199.0625 L 111.660156 143.207031 L 110.660156 143.207031 L 110.660156 144.207031 L 110.742188 144.207031 C 111.28125 144.207031 111.722656 143.777344 111.742188 143.242188 C 113.71875 89.210938 158.085938 46 212.601562 46 C 267.113281 46 311.480469 89.210938 313.457031 143.242188 C 313.476562 143.777344 313.921875 144.207031 314.457031 144.207031 L 314.457031 143.207031" fill="#040606"/></g><g id="change7_1"><path d="M 309.621094 140.242188 C 307.117188 140.242188 304.679688 140.550781 302.339844 141.121094 L 302.339844 205.359375 C 304.679688 205.929688 307.117188 206.242188 309.621094 206.242188 C 327.179688 206.242188 341.414062 191.464844 341.414062 173.242188 C 341.414062 155.015625 327.179688 140.242188 309.621094 140.242188" fill="#a5a8a6"/></g><g id="change2_8"><path d="M 309.621094 140.242188 L 309.621094 139.242188 C 307.03125 139.242188 304.515625 139.5625 302.101562 140.152344 C 301.652344 140.261719 301.339844 140.660156 301.339844 141.121094 L 301.339844 205.359375 C 301.339844 205.824219 301.652344 206.222656 302.101562 206.332031 C 304.515625 206.917969 307.03125 207.242188 309.621094 207.242188 C 318.683594 207.242188 326.894531 203.425781 332.820312 197.269531 C 338.75 191.113281 342.414062 182.617188 342.414062 173.242188 C 342.414062 163.867188 338.75 155.367188 332.820312 149.214844 C 326.894531 143.058594 318.683594 139.242188 309.621094 139.242188 L 309.621094 141.242188 C 318.117188 141.242188 325.800781 144.8125 331.382812 150.601562 C 336.957031 156.390625 340.410156 164.390625 340.414062 173.242188 C 340.410156 182.089844 336.957031 190.089844 331.382812 195.882812 C 325.800781 201.671875 318.117188 205.238281 309.621094 205.242188 C 307.199219 205.242188 304.839844 204.941406 302.574219 204.390625 L 302.339844 205.359375 L 303.339844 205.359375 L 303.339844 141.121094 L 302.339844 141.121094 L 302.574219 142.09375 C 304.839844 141.539062 307.199219 141.242188 309.621094 141.242188 L 309.621094 140.242188" fill="#040606"/></g><g id="change8_1"><path d="M 309.621094 204.035156 C 309.621094 209.15625 305.472656 213.308594 300.351562 213.308594 C 295.230469 213.308594 291.078125 209.15625 291.078125 204.035156 L 291.078125 142.445312 C 291.078125 137.324219 295.230469 133.175781 300.351562 133.175781 C 305.472656 133.175781 309.621094 137.324219 309.621094 142.445312 L 309.621094 204.035156" fill="#2f3031"/></g><g id="change2_9"><path d="M 309.621094 204.035156 L 308.621094 204.035156 C 308.621094 206.324219 307.695312 208.386719 306.199219 209.886719 C 304.699219 211.386719 302.636719 212.308594 300.351562 212.308594 C 298.0625 212.308594 296 211.386719 294.5 209.886719 C 293.003906 208.386719 292.078125 206.324219 292.078125 204.035156 L 292.078125 142.445312 C 292.078125 140.15625 293.003906 138.097656 294.5 136.597656 C 296 135.097656 298.0625 134.175781 300.351562 134.175781 C 302.636719 134.175781 304.699219 135.097656 306.199219 136.597656 C 307.695312 138.097656 308.621094 140.15625 308.621094 142.445312 L 308.621094 204.035156 L 310.621094 204.035156 L 310.621094 142.445312 C 310.621094 136.769531 306.023438 132.175781 300.351562 132.175781 C 294.675781 132.175781 290.078125 136.769531 290.078125 142.445312 L 290.078125 204.035156 C 290.078125 209.710938 294.675781 214.308594 300.351562 214.308594 C 306.023438 214.308594 310.621094 209.710938 310.621094 204.035156 L 309.621094 204.035156" fill="#040606"/></g><g id="change7_2"><path d="M 115.578125 140.242188 C 118.085938 140.242188 120.519531 140.550781 122.859375 141.121094 L 122.859375 205.359375 C 120.519531 205.929688 118.085938 206.242188 115.578125 206.242188 C 98.019531 206.242188 83.789062 191.464844 83.789062 173.242188 C 83.789062 155.015625 98.019531 140.242188 115.578125 140.242188" fill="#a5a8a6"/></g><g id="change2_10"><path d="M 115.578125 140.242188 L 115.578125 141.242188 C 118.003906 141.242188 120.355469 141.539062 122.621094 142.09375 L 122.859375 141.121094 L 121.859375 141.121094 L 121.859375 205.359375 L 122.859375 205.359375 L 122.625 204.390625 C 120.355469 204.941406 118.003906 205.242188 115.578125 205.242188 C 107.082031 205.238281 99.398438 201.671875 93.820312 195.882812 C 88.242188 190.089844 84.789062 182.089844 84.789062 173.242188 C 84.789062 164.390625 88.242188 156.390625 93.820312 150.601562 C 99.398438 144.8125 107.082031 141.242188 115.578125 141.242188 L 115.578125 139.242188 C 106.515625 139.242188 98.304688 143.058594 92.378906 149.214844 C 86.449219 155.367188 82.789062 163.867188 82.789062 173.242188 C 82.789062 182.617188 86.449219 191.113281 92.378906 197.269531 C 98.304688 203.425781 106.515625 207.242188 115.578125 207.242188 C 118.167969 207.242188 120.683594 206.917969 123.097656 206.332031 C 123.546875 206.222656 123.859375 205.824219 123.859375 205.359375 L 123.859375 141.121094 C 123.859375 140.660156 123.546875 140.261719 123.097656 140.152344 C 120.683594 139.5625 118.167969 139.242188 115.578125 139.242188 L 115.578125 140.242188" fill="#040606"/></g><g id="change8_2"><path d="M 137.429688 204.035156 C 137.429688 209.15625 133.277344 213.308594 128.160156 213.308594 C 123.035156 213.308594 118.886719 209.15625 118.886719 204.035156 L 118.886719 142.445312 C 118.886719 137.324219 123.035156 133.175781 128.160156 133.175781 C 133.277344 133.175781 137.429688 137.324219 137.429688 142.445312 L 137.429688 204.035156" fill="#2f3031"/></g><g id="change2_11"><path d="M 137.429688 204.035156 L 136.429688 204.035156 C 136.429688 206.324219 135.507812 208.386719 134.007812 209.886719 C 132.507812 211.386719 130.445312 212.308594 128.160156 212.308594 C 125.871094 212.308594 123.808594 211.386719 122.308594 209.886719 C 120.808594 208.386719 119.886719 206.324219 119.886719 204.035156 L 119.886719 142.445312 C 119.886719 140.15625 120.808594 138.097656 122.308594 136.597656 C 123.808594 135.097656 125.871094 134.175781 128.160156 134.175781 C 130.445312 134.175781 132.507812 135.097656 134.007812 136.597656 C 135.507812 138.097656 136.429688 140.15625 136.429688 142.445312 L 136.429688 204.035156 L 138.429688 204.035156 L 138.429688 142.445312 C 138.429688 136.769531 133.828125 132.175781 128.160156 132.175781 C 122.484375 132.175781 117.886719 136.769531 117.886719 142.445312 L 117.886719 204.035156 C 117.886719 209.710938 122.484375 214.308594 128.160156 214.308594 C 133.832031 214.308594 138.429688 209.710938 138.429688 204.035156 L 137.429688 204.035156" fill="#040606"/></g><g id="change6_2"><path d="M 310.570312 213.308594 C 310.570312 210.355469 310.609375 207.394531 310.683594 204.460938 C 313.566406 204.898438 316.230469 204.695312 318.640625 203.972656 C 318.5625 207.0625 318.515625 210.191406 318.515625 213.308594 C 318.515625 234.726562 306.84375 249.261719 283.820312 256.507812 C 265.347656 262.320312 243.496094 262.320312 227.539062 262.320312 L 227.539062 254.371094 C 267.710938 254.371094 310.570312 251.199219 310.570312 213.308594" fill="#8f9190"/></g><g id="change2_12"><path d="M 310.570312 213.308594 L 311.570312 213.308594 C 311.570312 210.363281 311.609375 207.410156 311.683594 204.484375 L 310.683594 204.460938 L 310.53125 205.449219 C 311.597656 205.609375 312.640625 205.691406 313.652344 205.6875 C 315.511719 205.691406 317.273438 205.425781 318.929688 204.929688 L 318.640625 203.972656 L 317.640625 203.945312 C 317.5625 207.042969 317.515625 210.183594 317.515625 213.308594 C 317.511719 223.839844 314.660156 232.570312 309.019531 239.597656 C 303.378906 246.621094 294.898438 251.96875 283.519531 255.550781 C 265.257812 261.304688 243.488281 261.324219 227.539062 261.320312 L 227.539062 262.320312 L 228.539062 262.320312 L 228.539062 254.371094 L 227.539062 254.371094 L 227.539062 255.371094 C 247.65625 255.363281 268.484375 254.59375 284.449219 248.992188 C 292.429688 246.1875 299.214844 242.15625 304.015625 236.347656 C 308.820312 230.539062 311.574219 222.96875 311.570312 213.308594 L 309.570312 213.308594 C 309.5625 222.597656 306.960938 229.628906 302.472656 235.074219 C 299.101562 239.152344 294.644531 242.347656 289.347656 244.839844 C 273.464844 252.335938 250.101562 253.382812 227.539062 253.371094 C 227.277344 253.371094 227.019531 253.476562 226.832031 253.664062 C 226.644531 253.847656 226.539062 254.105469 226.539062 254.371094 L 226.539062 262.320312 C 226.539062 262.585938 226.644531 262.835938 226.832031 263.027344 C 227.019531 263.214844 227.273438 263.320312 227.539062 263.320312 C 243.503906 263.316406 265.4375 263.335938 284.117188 257.460938 C 295.761719 253.796875 304.628906 248.257812 310.578125 240.847656 C 316.53125 233.441406 319.519531 224.195312 319.515625 213.308594 C 319.515625 210.203125 319.5625 207.082031 319.640625 203.996094 C 319.648438 203.675781 319.503906 203.371094 319.246094 203.175781 C 318.992188 202.980469 318.660156 202.921875 318.355469 203.011719 C 316.886719 203.453125 315.320312 203.6875 313.652344 203.691406 C 312.742188 203.6875 311.800781 203.617188 310.832031 203.472656 C 310.550781 203.429688 310.257812 203.511719 310.039062 203.695312 C 309.820312 203.878906 309.6875 204.148438 309.683594 204.4375 C 309.609375 207.375 309.570312 210.347656 309.570312 213.308594 L 310.570312 213.308594" fill="#040606"/></g><g id="change8_3"><path d="M 242.773438 257.683594 C 242.773438 261.339844 239.804688 264.304688 236.148438 264.304688 L 208.996094 264.304688 C 205.339844 264.304688 202.371094 261.339844 202.371094 257.683594 C 202.371094 254.023438 205.339844 251.058594 208.996094 251.058594 L 236.148438 251.058594 C 239.804688 251.058594 242.773438 254.023438 242.773438 257.683594" fill="#2f3031"/></g><g id="change2_13"><path d="M 242.773438 257.683594 L 241.773438 257.683594 C 241.769531 259.238281 241.144531 260.636719 240.125 261.65625 C 239.105469 262.675781 237.703125 263.304688 236.148438 263.304688 L 208.996094 263.304688 C 207.441406 263.304688 206.039062 262.675781 205.019531 261.65625 C 204 260.636719 203.375 259.238281 203.371094 257.683594 C 203.375 256.125 204 254.726562 205.019531 253.707031 C 206.039062 252.6875 207.441406 252.058594 208.996094 252.058594 L 236.148438 252.058594 C 237.703125 252.058594 239.105469 252.6875 240.125 253.707031 C 241.144531 254.726562 241.769531 256.125 241.773438 257.683594 L 243.773438 257.683594 C 243.769531 253.46875 240.359375 250.058594 236.148438 250.058594 L 208.996094 250.058594 C 204.785156 250.058594 201.375 253.472656 201.371094 257.683594 C 201.375 261.894531 204.785156 265.304688 208.996094 265.304688 L 236.148438 265.304688 C 240.359375 265.304688 243.769531 261.894531 243.773438 257.683594 L 242.773438 257.683594" fill="#040606"/></g></g></svg>