<?xml version="1.0" encoding="UTF-8" standalone="no"?><svg xmlns="http://www.w3.org/2000/svg" xmlns:xlink="http://www.w3.org/1999/xlink" fill="#000000" height="502" preserveAspectRatio="xMidYMid meet" version="1" viewBox="-1.0 -1.0 502.0 502.0" width="502" zoomAndPan="magnify"><g><g id="change1_3"><path d="M14,66.9C14,38,38,14,66.9,14H72V-1h-5.1C29.7-1-1,29.7-1,66.9V72h15V66.9z" fill="#000000"/></g></g><g><g><g id="change1_6"><path d="M433.1-1H428v15h5.1C462,14,486,38,486,66.9V72h15v-5.1C501,29.7,470.3-1,433.1-1z" fill="#000000"/></g></g></g><g><g id="change1_4"><path d="M70 -1H430V14H70z" fill="#000000"/></g></g><g><g id="change1_5"><path d="M-1 70H14V430H-1z" fill="#000000"/></g></g><g><g id="change1_7"><path d="M70 486H430V501H70z" fill="#000000"/></g></g><g><g id="change1_1"><path d="M66.9,486C38,486,14,462,14,433.1V428H-1v5.1c0,37.2,30.7,67.9,67.9,67.9H72v-15H66.9z" fill="#000000"/></g></g><g><g id="change1_2"><path d="M486 70H501V430H486z" fill="#000000"/></g></g><g><g id="change1_8"><path d="M501,433.1V428h-15v5.1c0,28.9-24,52.9-52.9,52.9H428v15h5.1C470.3,501,501,470.3,501,433.1z" fill="#000000"/></g></g></svg>